<svg xmlns="http://www.w3.org/2000/svg" width="36" height="36" viewBox="0 0 36 36">
  <path id="calculate" d="M13.3,17.75h7.3a1.25,1.25,0,1,0,0-2.5H13.3a1.25,1.25,0,1,0,0,2.5Zm14.4,17.1h7.55A1.2,1.2,0,0,0,36.5,33.6a1.136,1.136,0,0,0-.35-.875,1.27,1.27,0,0,0-.9-.325H27.7a1.27,1.27,0,0,0-.9.325,1.136,1.136,0,0,0-.35.875,1.2,1.2,0,0,0,1.25,1.25Zm0-5.35h7.55a1.25,1.25,0,1,0,0-2.5H27.7a1.25,1.25,0,1,0,0,2.5ZM16.95,36.6a1.2,1.2,0,0,0,1.25-1.25V32.2h3.15a1.25,1.25,0,1,0,0-2.5H18.2V26.55a1.25,1.25,0,1,0-2.5,0V29.7H12.55a1.25,1.25,0,1,0,0,2.5H15.7v3.15a1.2,1.2,0,0,0,1.25,1.25ZM27.4,20.45a1.212,1.212,0,0,0,1.8,0l2.15-2.15,2.2,2.2a1.128,1.128,0,0,0,.875.375,1.322,1.322,0,0,0,.875-.425,1.212,1.212,0,0,0,0-1.8L33.15,16.5l2.2-2.2a1.128,1.128,0,0,0,.375-.875,1.322,1.322,0,0,0-.425-.875,1.213,1.213,0,0,0-1.8,0L31.35,14.7l-2.2-2.2a1.128,1.128,0,0,0-.875-.375,1.322,1.322,0,0,0-.875.425,1.212,1.212,0,0,0,0,1.8l2.15,2.15-2.2,2.2a1.128,1.128,0,0,0-.375.875,1.322,1.322,0,0,0,.425.875ZM9,42a2.878,2.878,0,0,1-2.1-.9A2.878,2.878,0,0,1,6,39V9a2.878,2.878,0,0,1,.9-2.1A2.878,2.878,0,0,1,9,6H39a2.878,2.878,0,0,1,2.1.9A2.878,2.878,0,0,1,42,9V39a3.076,3.076,0,0,1-3,3Zm0-3H39V9H9Zm0,0v0Z" transform="translate(-6 -6)" fill="#199fb2"/>
</svg>
