<svg xmlns="http://www.w3.org/2000/svg" width="48" height="24" viewBox="0 0 48 24">
  <path id="groups" d="M1.5,36A1.454,1.454,0,0,1,0,34.5V33.35A3.571,3.571,0,0,1,2.075,30.2,10.767,10.767,0,0,1,7.5,29q.6,0,1.175.025A8.3,8.3,0,0,1,9.8,29.15a8.357,8.357,0,0,0-.6,1.75A8.739,8.739,0,0,0,9,32.8V36Zm12,0A1.454,1.454,0,0,1,12,34.5V32.8q0-3.25,3.325-5.275A16.5,16.5,0,0,1,24,25.5a16.477,16.477,0,0,1,8.7,2.025Q36,29.55,36,32.8v1.7A1.454,1.454,0,0,1,34.5,36ZM39,36V32.8a8.739,8.739,0,0,0-.2-1.9,8.357,8.357,0,0,0-.6-1.75,8.3,8.3,0,0,1,1.125-.125Q39.9,29,40.5,29a10.767,10.767,0,0,1,5.425,1.2A3.571,3.571,0,0,1,48,33.35V34.5A1.454,1.454,0,0,1,46.5,36ZM24,28.5a14.79,14.79,0,0,0-6.525,1.225Q15,30.95,15,32.8V33H33v-.25q0-1.8-2.475-3.025A14.79,14.79,0,0,0,24,28.5Zm-16.5-1a3.372,3.372,0,0,1-2.475-1.025,3.5,3.5,0,0,1,0-4.95A3.372,3.372,0,0,1,7.5,20.5a3.5,3.5,0,0,1,2.475,5.975A3.372,3.372,0,0,1,7.5,27.5Zm33,0a3.5,3.5,0,0,1-2.475-5.975,3.5,3.5,0,0,1,4.95,4.95A3.372,3.372,0,0,1,40.5,27.5ZM24,24a5.975,5.975,0,0,1-6-6,5.975,5.975,0,0,1,6-6,5.975,5.975,0,0,1,6,6,5.975,5.975,0,0,1-6,6Zm0-9a2.937,2.937,0,0,0-2.125.85,3.048,3.048,0,0,0,0,4.275,3.048,3.048,0,0,0,4.275,0A2.988,2.988,0,0,0,24,15ZM24,33ZM24,18Z" transform="translate(0 -12)" fill="#eb6875"/>
</svg>
