<svg xmlns="http://www.w3.org/2000/svg" width="40.4" height="38.4" viewBox="0 0 40.4 38.4">
  <path id="person" d="M22.05,23a7.511,7.511,0,0,1-7.55-7.5A7.469,7.469,0,0,1,22,8a7.427,7.427,0,0,1,7.5,7.45,7.325,7.325,0,0,1-2.175,5.35A7.142,7.142,0,0,1,22.05,23ZM22,20a4.307,4.307,0,0,0,3.2-1.325A4.373,4.373,0,0,0,26.5,15.5a4.349,4.349,0,0,0-1.3-3.2A4.29,4.29,0,0,0,22.05,11a4.433,4.433,0,0,0-3.225,1.3A4.249,4.249,0,0,0,17.5,15.45a4.389,4.389,0,0,0,1.325,3.225A4.331,4.331,0,0,0,22,20ZM43.85,45.95,37.9,40a7.024,7.024,0,0,1-2.375,1.175A9.8,9.8,0,0,1,33,41.5,8.451,8.451,0,0,1,24.5,33,8.451,8.451,0,0,1,33,24.5,8.451,8.451,0,0,1,41.5,33a9.8,9.8,0,0,1-.325,2.525A7.024,7.024,0,0,1,40,37.9l5.95,5.95a1.485,1.485,0,1,1-2.1,2.1ZM33,38.5a5.551,5.551,0,0,0,3.925-9.425,5.551,5.551,0,0,0-7.85,7.85A5.327,5.327,0,0,0,33,38.5ZM23.9,40H9a2.988,2.988,0,0,1-3-3V35.3a5.51,5.51,0,0,1,.875-3.15A6.6,6.6,0,0,1,9.4,30a35.242,35.242,0,0,1,6.125-2.175A23.385,23.385,0,0,1,23.2,27.05a12.657,12.657,0,0,0-.75,1.425A9.92,9.92,0,0,0,21.9,30a20.535,20.535,0,0,0-6.8.925A36.632,36.632,0,0,0,10.6,32.7a3.381,3.381,0,0,0-1.15,1.075A2.687,2.687,0,0,0,9,35.3V37H21.9q.55.85,1,1.575A15.76,15.76,0,0,0,23.9,40ZM22,15.5ZM21.9,37Z" transform="translate(-6 -8)" fill="#5fd5cd"/>
</svg>
