<svg xmlns="http://www.w3.org/2000/svg" width="45" height="44" viewBox="0 0 45 44">
  <path id="tips" d="M43.2,17.15,40.7,16l2.5-1.15,1.15-2.5,1.15,2.5L48,16l-2.5,1.15-1.15,2.5ZM36.25,7.2l-3.7-1.75,3.7-1.75L38,0l1.75,3.7,3.7,1.75L39.75,7.2,38,10.9ZM18,44a4.012,4.012,0,0,1-4.05-4.05h8.1A4.012,4.012,0,0,1,18,44Zm-6.6-7.15a1.5,1.5,0,1,1,0-3H24.6a1.5,1.5,0,1,1,0,3ZM10.15,30.8a16.406,16.406,0,0,1-5.225-5.375A13.919,13.919,0,0,1,3,18.15,14.417,14.417,0,0,1,7.45,7.6,14.417,14.417,0,0,1,18,3.15,14.417,14.417,0,0,1,28.55,7.6,14.417,14.417,0,0,1,33,18.15a14.061,14.061,0,0,1-1.9,7.275A16,16,0,0,1,25.85,30.8Zm1.1-3H24.8a11.652,11.652,0,0,0,3.8-4.15,11.247,11.247,0,0,0,1.4-5.5,11.555,11.555,0,0,0-3.525-8.475A11.555,11.555,0,0,0,18,6.15,11.555,11.555,0,0,0,9.525,9.675,11.555,11.555,0,0,0,6,18.15a11.247,11.247,0,0,0,1.4,5.5A11.493,11.493,0,0,0,11.25,27.8ZM18,27.8Z" transform="translate(-3)" fill="#eac357"/>
</svg>
